<svg xmlns="http://www.w3.org/2000/svg" version="1.1" xmlns:xlink="http://www.w3.org/1999/xlink" viewBox="0 0 200 200"><rect width="200" height="200" fill="url('#gradient')"></rect><defs><linearGradient id="gradient" gradientTransform="rotate(0 0.5 0.5)"><stop offset="0%" stop-color="#20267f"></stop><stop offset="100%" stop-color="#366b2a"></stop></linearGradient></defs><g><g fill="#9aeabe" transform="matrix(4.428436018957346,0,0,4.428436018957346,22.25520966482388,131.48555555253233)" stroke="#aade39" stroke-width="0.1"><path d="M4.50-14.22L4.50-2.64L10.47-2.64L10.47 0L1.07 0L1.07-14.22L4.50-14.22ZM20.87-8.30L20.87-5.66L15.34-5.66L15.34 0L11.91 0L11.91-14.22L21.43-14.22L21.43-11.57L15.34-11.57L15.34-8.30L20.87-8.30ZM28.47-4.82L26.28-4.82L26.28 0L22.85 0L22.85-14.22L28.53-14.22Q30.16-14.22 31.41-13.62Q32.67-13.02 33.35-11.91Q34.04-10.80 34.04-9.39L34.04-9.39Q34.04-7.31 32.55-6.07Q31.06-4.82 28.47-4.82L28.47-4.82ZM26.28-11.57L26.28-7.47L28.53-7.47Q29.52-7.47 30.04-7.97Q30.57-8.47 30.57-9.38L30.57-9.38Q30.57-10.37 30.03-10.97Q29.49-11.56 28.56-11.57L28.56-11.57L26.28-11.57Z"></path></g></g></svg>
